<svg width="119" height="94" viewBox="0 0 119 94" fill="none" xmlns="http://www.w3.org/2000/svg">
<rect x="12" width="93" height="90" rx="45" fill="#15A18C"/>
<path d="M0.641602 69.7068C0.641602 59.7657 8.70048 51.7068 18.6416 51.7068H118.566V75.2168C118.566 85.1579 110.507 93.2168 100.566 93.2168H0.641602V69.7068Z" fill="url(#paint0_linear_920_5451)"/>
<g filter="url(#filter0_d_920_5451)">
<path d="M34.1709 74.8179H31.3218V73.668H34.1709C34.7227 73.668 35.1694 73.5801 35.5112 73.4043C35.853 73.2285 36.1021 72.9844 36.2583 72.6719C36.4194 72.3594 36.5 72.0029 36.5 71.6025C36.5 71.2363 36.4194 70.8921 36.2583 70.5698C36.1021 70.2476 35.853 69.9888 35.5112 69.7935C35.1694 69.5933 34.7227 69.4932 34.1709 69.4932H31.6514V79H30.2378V68.3359H34.1709C34.9766 68.3359 35.6577 68.4751 36.2144 68.7534C36.771 69.0317 37.1934 69.4175 37.4814 69.9106C37.7695 70.3989 37.9136 70.958 37.9136 71.5879C37.9136 72.2715 37.7695 72.855 37.4814 73.3384C37.1934 73.8218 36.771 74.1904 36.2144 74.4443C35.6577 74.6934 34.9766 74.8179 34.1709 74.8179ZM40.8506 72.3203V79H39.4956V71.0752H40.814L40.8506 72.3203ZM43.3262 71.0312L43.3188 72.291C43.2065 72.2666 43.0991 72.252 42.9966 72.2471C42.8989 72.2373 42.7866 72.2324 42.6597 72.2324C42.3472 72.2324 42.0713 72.2812 41.832 72.3789C41.5928 72.4766 41.3901 72.6133 41.2241 72.7891C41.0581 72.9648 40.9263 73.1748 40.8286 73.4189C40.7358 73.6582 40.6748 73.9219 40.6455 74.21L40.2646 74.4297C40.2646 73.9512 40.311 73.502 40.4038 73.082C40.5015 72.6621 40.6504 72.291 40.8506 71.9688C41.0508 71.6416 41.3047 71.3877 41.6123 71.207C41.9248 71.0215 42.2959 70.9287 42.7256 70.9287C42.8232 70.9287 42.9355 70.9409 43.0625 70.9653C43.1895 70.9849 43.2773 71.0068 43.3262 71.0312ZM47.7207 79.1465C47.1689 79.1465 46.6685 79.0537 46.2192 78.8682C45.7749 78.6777 45.3916 78.4116 45.0693 78.0698C44.752 77.728 44.5078 77.3228 44.3369 76.854C44.166 76.3853 44.0806 75.8726 44.0806 75.3159V75.0083C44.0806 74.3638 44.1758 73.79 44.3662 73.2871C44.5566 72.7793 44.8154 72.3496 45.1426 71.998C45.4697 71.6465 45.8408 71.3804 46.2559 71.1997C46.6709 71.019 47.1006 70.9287 47.5449 70.9287C48.1113 70.9287 48.5996 71.0264 49.0098 71.2217C49.4248 71.417 49.7642 71.6904 50.0278 72.042C50.2915 72.3887 50.4868 72.7988 50.6138 73.2725C50.7407 73.7412 50.8042 74.2539 50.8042 74.8105V75.4185H44.8862V74.3125H49.4492V74.21C49.4297 73.8584 49.3564 73.5166 49.2295 73.1846C49.1074 72.8525 48.9121 72.5791 48.6436 72.3643C48.375 72.1494 48.0088 72.042 47.5449 72.042C47.2373 72.042 46.9541 72.1079 46.6953 72.2397C46.4365 72.3667 46.2144 72.5571 46.0288 72.811C45.8433 73.0649 45.6992 73.375 45.5967 73.7412C45.4941 74.1074 45.4429 74.5298 45.4429 75.0083V75.3159C45.4429 75.6919 45.4941 76.0459 45.5967 76.3779C45.7041 76.7051 45.8579 76.9932 46.0581 77.2422C46.2632 77.4912 46.5098 77.6865 46.7979 77.8281C47.0908 77.9697 47.4229 78.0405 47.7939 78.0405C48.2725 78.0405 48.6777 77.9429 49.0098 77.7476C49.3418 77.5522 49.6323 77.291 49.8813 76.9639L50.7017 77.6157C50.5308 77.8745 50.3135 78.1211 50.0498 78.3555C49.7861 78.5898 49.4614 78.7803 49.0757 78.9268C48.6948 79.0732 48.2432 79.1465 47.7207 79.1465ZM53.7339 72.6499V79H52.3716V71.0752H53.6606L53.7339 72.6499ZM53.4556 74.7373L52.8257 74.7153C52.8306 74.1733 52.9014 73.6729 53.0381 73.2139C53.1748 72.75 53.3774 72.3472 53.646 72.0054C53.9146 71.6636 54.249 71.3999 54.6494 71.2144C55.0498 71.0239 55.5137 70.9287 56.041 70.9287C56.4121 70.9287 56.7539 70.9824 57.0664 71.0898C57.3789 71.1924 57.6499 71.356 57.8794 71.5806C58.1089 71.8052 58.2871 72.0933 58.4141 72.4448C58.541 72.7964 58.6045 73.2212 58.6045 73.7192V79H57.2495V73.7852C57.2495 73.3701 57.1787 73.0381 57.0371 72.7891C56.9004 72.54 56.7051 72.3594 56.4512 72.2471C56.1973 72.1299 55.8994 72.0713 55.5576 72.0713C55.1572 72.0713 54.8228 72.1421 54.5542 72.2837C54.2856 72.4253 54.0708 72.6206 53.9097 72.8696C53.7485 73.1187 53.6313 73.4043 53.5581 73.7266C53.4897 74.0439 53.4556 74.3809 53.4556 74.7373ZM58.5898 73.9902L57.6816 74.2686C57.6865 73.834 57.7573 73.4165 57.894 73.0161C58.0356 72.6157 58.2383 72.2593 58.502 71.9468C58.7705 71.6343 59.1001 71.3877 59.4907 71.207C59.8813 71.0215 60.3281 70.9287 60.8311 70.9287C61.2559 70.9287 61.6318 70.9849 61.959 71.0972C62.291 71.2095 62.5693 71.3828 62.7939 71.6172C63.0234 71.8467 63.1968 72.1421 63.314 72.5034C63.4312 72.8647 63.4897 73.2944 63.4897 73.7925V79H62.1274V73.7778C62.1274 73.3335 62.0566 72.9893 61.915 72.7451C61.7783 72.4961 61.583 72.3228 61.3291 72.2251C61.0801 72.1226 60.7822 72.0713 60.4355 72.0713C60.1377 72.0713 59.874 72.1226 59.6445 72.2251C59.415 72.3276 59.2222 72.4692 59.0659 72.6499C58.9097 72.8257 58.79 73.0283 58.707 73.2578C58.6289 73.4873 58.5898 73.7314 58.5898 73.9902ZM67.0127 71.0752V79H65.6504V71.0752H67.0127ZM65.5479 68.9731C65.5479 68.7534 65.6138 68.5679 65.7456 68.4165C65.8823 68.2651 66.0825 68.1895 66.3462 68.1895C66.605 68.1895 66.8027 68.2651 66.9395 68.4165C67.0811 68.5679 67.1519 68.7534 67.1519 68.9731C67.1519 69.1831 67.0811 69.3638 66.9395 69.5151C66.8027 69.6616 66.605 69.7349 66.3462 69.7349C66.0825 69.7349 65.8823 69.6616 65.7456 69.5151C65.6138 69.3638 65.5479 69.1831 65.5479 68.9731ZM74.0366 77.1689V71.0752H75.3989V79H74.1025L74.0366 77.1689ZM74.293 75.499L74.8569 75.4844C74.8569 76.0117 74.8008 76.5 74.6885 76.9492C74.5811 77.3936 74.4053 77.7793 74.1611 78.1064C73.917 78.4336 73.5972 78.6899 73.2017 78.8755C72.8062 79.0562 72.3252 79.1465 71.7588 79.1465C71.373 79.1465 71.019 79.0903 70.6968 78.978C70.3794 78.8657 70.106 78.6924 69.8765 78.458C69.647 78.2236 69.4688 77.9185 69.3418 77.5425C69.2197 77.1665 69.1587 76.7148 69.1587 76.1875V71.0752H70.5137V76.2021C70.5137 76.5586 70.5527 76.854 70.6309 77.0884C70.7139 77.3179 70.8237 77.501 70.9604 77.6377C71.1021 77.7695 71.2583 77.8623 71.4292 77.916C71.605 77.9697 71.7856 77.9966 71.9712 77.9966C72.5474 77.9966 73.0039 77.8867 73.3408 77.667C73.6777 77.4424 73.9194 77.1421 74.0659 76.7661C74.2173 76.3853 74.293 75.9629 74.293 75.499ZM78.812 72.6499V79H77.4497V71.0752H78.7388L78.812 72.6499ZM78.5337 74.7373L77.9038 74.7153C77.9087 74.1733 77.9795 73.6729 78.1162 73.2139C78.2529 72.75 78.4556 72.3472 78.7241 72.0054C78.9927 71.6636 79.3271 71.3999 79.7275 71.2144C80.1279 71.0239 80.5918 70.9287 81.1191 70.9287C81.4902 70.9287 81.832 70.9824 82.1445 71.0898C82.457 71.1924 82.728 71.356 82.9575 71.5806C83.187 71.8052 83.3652 72.0933 83.4922 72.4448C83.6191 72.7964 83.6826 73.2212 83.6826 73.7192V79H82.3276V73.7852C82.3276 73.3701 82.2568 73.0381 82.1152 72.7891C81.9785 72.54 81.7832 72.3594 81.5293 72.2471C81.2754 72.1299 80.9775 72.0713 80.6357 72.0713C80.2354 72.0713 79.9009 72.1421 79.6323 72.2837C79.3638 72.4253 79.1489 72.6206 78.9878 72.8696C78.8267 73.1187 78.7095 73.4043 78.6362 73.7266C78.5679 74.0439 78.5337 74.3809 78.5337 74.7373ZM83.668 73.9902L82.7598 74.2686C82.7646 73.834 82.8354 73.4165 82.9722 73.0161C83.1138 72.6157 83.3164 72.2593 83.5801 71.9468C83.8486 71.6343 84.1782 71.3877 84.5688 71.207C84.9595 71.0215 85.4062 70.9287 85.9092 70.9287C86.334 70.9287 86.71 70.9849 87.0371 71.0972C87.3691 71.2095 87.6475 71.3828 87.8721 71.6172C88.1016 71.8467 88.2749 72.1421 88.3921 72.5034C88.5093 72.8647 88.5679 73.2944 88.5679 73.7925V79H87.2056V73.7778C87.2056 73.3335 87.1348 72.9893 86.9932 72.7451C86.8564 72.4961 86.6611 72.3228 86.4072 72.2251C86.1582 72.1226 85.8604 72.0713 85.5137 72.0713C85.2158 72.0713 84.9521 72.1226 84.7227 72.2251C84.4932 72.3276 84.3003 72.4692 84.144 72.6499C83.9878 72.8257 83.8682 73.0283 83.7852 73.2578C83.707 73.4873 83.668 73.7314 83.668 73.9902Z" fill="white"/>
</g>
<g clip-path="url(#clip0_920_5451)">
<path fill-rule="evenodd" clip-rule="evenodd" d="M50.456 21.2124C50.456 22.7519 49.2997 23.9966 47.8754 23.9966C46.4474 23.9966 45.2949 22.7519 45.2949 21.2124C45.2949 19.6749 46.4474 18.4244 47.8754 18.4244C49.3007 18.4244 50.456 19.6739 50.456 21.2124Z" fill="#C8832E"/>
<path fill-rule="evenodd" clip-rule="evenodd" d="M44.2676 32.408C44.2676 32.408 50.3177 28.524 47.2295 20.6713C47.2295 20.6713 58.1771 36.991 61.2681 30.0473C64.358 23.1025 60.3661 38.5219 60.1091 38.9368C59.852 39.3555 54.7002 43.5228 54.7002 43.5228H46.5874L44.2676 32.408Z" fill="#C8832E"/>
<path d="M71.3369 23.9966C72.7637 23.9966 73.9202 22.7501 73.9202 21.2124C73.9202 19.6747 72.7637 18.4282 71.3369 18.4282C69.9102 18.4282 68.7537 19.6747 68.7537 21.2124C68.7537 22.7501 69.9102 23.9966 71.3369 23.9966Z" fill="#C8832E"/>
<path fill-rule="evenodd" clip-rule="evenodd" d="M74.941 32.4081C74.941 32.4081 68.8872 28.5241 71.9791 20.6714C71.9791 20.6714 61.0305 36.9912 57.9387 30.0474C54.8496 23.1027 58.8425 38.522 59.1023 38.9369C59.3547 39.3557 64.5075 43.5229 64.5075 43.5229H72.624L74.941 32.4081Z" fill="#C8832E"/>
<path fill-rule="evenodd" clip-rule="evenodd" d="M85.4655 18.4402C83.4884 18.4402 81.8872 20.2591 81.8872 22.5063C81.8872 23.1053 82.007 23.6737 82.2125 24.185C76.6755 27.4795 71.5301 32.5671 71.5301 32.5671C66.8509 38.1593 63.0617 29.0437 60.9953 22.0561C63.5122 21.3207 65.3778 18.7292 65.3778 15.6369C65.3778 11.9714 62.765 9.00024 59.5387 9.00024C56.3133 9.00024 53.6996 11.9714 53.6996 15.6369C53.6996 18.7778 55.6205 21.3979 58.201 22.0923C56.1299 29.0809 52.3471 38.1574 47.6799 32.5719C47.6799 32.5719 42.5345 27.4842 36.9921 24.1897C37.2074 23.6581 37.3186 23.0875 37.3191 22.511C37.3191 20.2638 35.7161 18.4449 33.7409 18.4449C31.7647 18.4449 30.1626 20.2638 30.1626 22.511C30.1626 24.7582 31.7656 26.5791 33.7409 26.5791C34.4042 26.5791 35.015 26.3606 35.5494 26.003C37.6167 30.4659 40.5353 38.4884 39.0115 45.8461C39.0115 45.8461 41.2549 55.1506 59.6032 54.8368C77.9506 55.1506 80.1912 45.8461 80.1912 45.8461C78.6692 38.4913 81.5869 30.4706 83.6561 26.003C84.1905 26.3606 84.8013 26.5791 85.4646 26.5791C87.4407 26.5791 89.0438 24.7582 89.0438 22.511C89.0438 20.2638 87.4417 18.444 85.4655 18.444" fill="#F79420"/>
<path fill-rule="evenodd" clip-rule="evenodd" d="M59.6036 56.9643C44.9432 57.2151 40.568 51.3282 39.4026 48.9503C39.3552 50.0236 39.2245 51.0911 39.012 52.1427C39.012 52.1427 41.2553 61.4453 59.6036 61.1353C77.951 61.4453 80.1916 52.1427 80.1916 52.1427C79.9795 51.0911 79.8495 50.0235 79.8028 48.9503C78.6374 51.3282 74.2659 57.2151 59.6036 56.9643" fill="#C8832E"/>
<path fill-rule="evenodd" clip-rule="evenodd" d="M58.7748 54.7305C61.4079 41.0289 62.4692 27.0412 58.5252 13.4303C58.0756 11.8813 57.9577 10.4372 58.0876 9.10852C55.5632 9.842 53.6976 12.4335 53.6976 15.5315C53.6976 18.6724 55.6185 21.3021 58.199 21.985C56.128 28.9755 52.3452 38.054 47.678 32.4665C47.678 32.4665 42.5326 27.3789 36.9901 24.0834C37.2057 23.5515 37.3168 22.9806 37.3172 22.4038C37.3172 20.1604 35.7142 18.3395 33.7389 18.3395C31.7628 18.3395 30.1606 20.1604 30.1606 22.4038C30.1606 24.6528 31.7637 26.4737 33.7389 26.4737C34.4022 26.4737 35.0131 26.2534 35.5474 25.8976C37.6148 30.3576 40.5334 38.383 39.0096 45.7379C39.0096 45.7379 41.1976 54.7486 58.7748 54.7333" fill="#F19D43"/>
<path d="M59.6037 42.9467L61.1625 45.9607L64.6422 46.4414L62.1207 48.784L62.7177 52.0947L59.6037 50.5295L56.4935 52.0947L57.0886 48.784L54.5698 46.4414L58.0468 45.9607L59.6037 42.9467Z" fill="white"/>
<path d="M59.5466 44.5319C59.5265 44.022 59.5561 43.5114 59.6351 43.0077L59.6065 42.9467L58.0486 45.9588L54.5698 46.4414L57.0849 48.7821L56.4925 52.0947L59.6065 50.5324L62.7158 52.0947L62.4652 50.6888C60.6899 49.0873 59.6341 46.864 59.5466 44.5319" fill="white"/>
<path d="M71.7742 44.5823L72.7323 46.426L74.8623 46.7236L73.3228 48.1572L73.6812 50.1898L71.7742 49.2359L69.8671 50.1898L70.2319 48.1572L68.6897 46.7236L70.8252 46.426L71.7742 44.5823Z" fill="white"/>
<path d="M71.737 45.553C71.7255 45.2406 71.7444 44.9278 71.7932 44.6192L71.7748 44.582L70.8212 46.4267L68.6885 46.7233L70.2307 48.1579L69.8686 50.1905L71.7748 49.2366L73.6809 50.1905L73.528 49.3282C72.4399 48.3448 71.7923 46.979 71.737 45.553" fill="white"/>
<path d="M47.3543 44.5824L48.306 46.4261L50.4369 46.7237L48.8956 48.1573L49.2605 50.1899L47.3543 49.2361L45.4473 50.1899L45.8121 48.1573L44.2671 46.7237L46.398 46.4261L47.3543 44.5824Z" fill="white"/>
<path d="M47.3156 45.553C47.3006 45.2405 47.3201 44.9272 47.3737 44.6192L47.3543 44.582L46.398 46.4267L44.2671 46.7233L45.8084 48.1579L45.4463 50.1905L47.3534 49.2366L49.2595 50.1905L49.1048 49.3282C48.0167 48.3448 47.37 46.979 47.3156 45.553" fill="white"/>
</g>
<g clip-path="url(#clip1_920_5451)">
<path d="M100.507 34.2441L98.4223 32.8614C98.3803 32.8347 98.3447 32.7986 98.3181 32.7556C98.2915 32.7126 98.2747 32.664 98.2689 32.6133C98.2631 32.5626 98.2684 32.5113 98.2845 32.4631C98.3006 32.4148 98.3271 32.371 98.3619 32.3349L99.1446 31.5245C99.295 31.3689 99.5485 31.4024 99.6561 31.5932L100.959 33.7862C101.13 34.0884 100.796 34.4272 100.507 34.2441Z" fill="#FFC107"/>
<path d="M98.6847 40.8949L96.2643 40.9452C96.2151 40.9463 96.1667 40.959 96.1229 40.9822C96.0791 41.0054 96.0409 41.0386 96.0113 41.0793C95.9816 41.12 95.9613 41.1671 95.9517 41.2171C95.9422 41.2671 95.9437 41.3187 95.9562 41.368L96.2378 42.4759C96.2923 42.6896 96.5267 42.7918 96.7124 42.685L98.8513 41.5267C99.1461 41.3542 99.0237 40.8872 98.6847 40.8949Z" fill="#FFC107"/>
<path d="M104.307 45.1512L103.776 47.5915C103.727 47.8036 103.882 48.0081 104.093 48.0081H105.2C105.414 48.0081 105.569 47.799 105.515 47.5854L104.939 45.1451C104.854 44.8048 104.386 44.8094 104.307 45.1512V45.1512Z" fill="#FFC107"/>
<path d="M108.626 34.2441L110.71 32.8614C110.89 32.7469 110.92 32.489 110.771 32.3349L109.988 31.5245C109.953 31.4882 109.91 31.4606 109.863 31.4441C109.816 31.4275 109.765 31.4223 109.716 31.429C109.667 31.4356 109.619 31.4538 109.578 31.4823C109.536 31.5108 109.502 31.5487 109.477 31.5932L108.173 33.7862C108.002 34.0884 108.337 34.4272 108.626 34.2441V34.2441Z" fill="#FFC107"/>
<path d="M110.447 40.8949L112.868 40.9452C112.917 40.9463 112.965 40.959 113.009 40.9822C113.053 41.0054 113.091 41.0386 113.121 41.0793C113.15 41.12 113.171 41.1671 113.18 41.2171C113.19 41.2671 113.188 41.3187 113.176 41.368L112.894 42.4759C112.881 42.5257 112.858 42.5718 112.825 42.6108C112.793 42.6497 112.752 42.6804 112.706 42.7006C112.66 42.7207 112.611 42.7298 112.561 42.7271C112.512 42.7244 112.463 42.71 112.42 42.685L110.281 41.5267C109.986 41.3542 110.108 40.8872 110.447 40.8949Z" fill="#FFC107"/>
<path d="M105.163 29.7298L107.147 34.4149C107.221 34.5913 107.34 34.7436 107.491 34.8561C107.642 34.9686 107.82 35.037 108.005 35.0544L112.838 35.5031C113.385 35.5855 113.603 36.2798 113.207 36.6797L109.566 39.8463C109.271 40.1027 109.137 40.5056 109.218 40.8948L110.276 46.024C110.369 46.5871 109.799 47.0175 109.309 46.7504L105.091 44.1927C104.931 44.096 104.75 44.045 104.566 44.045C104.381 44.045 104.2 44.096 104.041 44.1927L99.8223 46.7489C99.3344 47.0145 98.7624 46.5856 98.8553 46.0225L99.9137 40.8933C99.9933 40.5041 99.8606 40.1012 99.5658 39.8448L95.9234 36.6812C95.5283 36.2829 95.7465 35.587 96.2919 35.5046L101.125 35.0559C101.311 35.0386 101.488 34.9701 101.639 34.8576C101.79 34.7451 101.909 34.5928 101.983 34.4165L103.967 29.7313C104.213 29.2186 104.918 29.2186 105.163 29.7298V29.7298Z" fill="#FDD835"/>
<path d="M105.019 34.6958L104.683 31.2437C104.67 31.0514 104.631 30.7218 104.929 30.7218C105.165 30.7218 105.293 31.23 105.293 31.23L106.301 34.0014C106.682 35.0559 106.526 35.4176 106.158 35.6313C105.737 35.8755 105.115 35.6847 105.019 34.6958V34.6958Z" fill="#FFFF8D"/>
<path d="M109.177 39.5397L112.069 37.2032C112.212 37.0796 112.47 36.8827 112.263 36.6584C112.1 36.4814 111.657 36.7362 111.657 36.7362L109.127 37.7602C108.372 38.0304 107.871 38.4302 107.826 38.9338C107.769 39.6053 108.351 40.1227 109.177 39.5397Z" fill="#F4B400"/>
</g>
<g clip-path="url(#clip2_920_5451)">
<path d="M7.71001 62.711L6.79812 62.1061C6.77973 62.0944 6.76414 62.0786 6.75251 62.0598C6.74089 62.041 6.73352 62.0197 6.73098 61.9975C6.72843 61.9754 6.73077 61.9529 6.73782 61.9318C6.74487 61.9107 6.75645 61.8915 6.77168 61.8757L7.11412 61.5212C7.1799 61.4531 7.29082 61.4678 7.3379 61.5512L7.90799 62.5107C7.9828 62.6429 7.83641 62.7911 7.71001 62.711Z" fill="#FFC107"/>
<path d="M6.91273 65.621L5.8538 65.643C5.83227 65.6435 5.81112 65.6491 5.79195 65.6592C5.77278 65.6694 5.75608 65.6839 5.74311 65.7017C5.73014 65.7195 5.72123 65.7401 5.71706 65.762C5.71288 65.7839 5.71355 65.8064 5.71902 65.828L5.84219 66.3127C5.86605 66.4062 5.96859 66.4509 6.04985 66.4042L6.9856 65.8974C7.11458 65.822 7.06105 65.6177 6.91273 65.621Z" fill="#FFC107"/>
<path d="M9.37209 67.483L9.13992 68.5506C9.11864 68.6434 9.18635 68.7329 9.27857 68.7329H9.7629C9.85641 68.7329 9.92412 68.6414 9.9009 68.5479L9.64875 67.4803C9.61134 67.3315 9.40691 67.3335 9.37209 67.483V67.483Z" fill="#FFC107"/>
<path d="M11.2618 62.711L12.1737 62.1061C12.2523 62.056 12.2652 61.9432 12.2001 61.8757L11.8577 61.5212C11.8422 61.5053 11.8235 61.4932 11.8029 61.486C11.7822 61.4787 11.7603 61.4765 11.7387 61.4794C11.7171 61.4823 11.6964 61.4903 11.6782 61.5027C11.6601 61.5152 11.6449 61.5318 11.6339 61.5512L11.0638 62.5107C10.989 62.6429 11.1354 62.7911 11.2618 62.711V62.711Z" fill="#FFC107"/>
<path d="M12.0593 65.6209L13.1182 65.6429C13.1397 65.6434 13.1609 65.6489 13.1801 65.6591C13.1992 65.6692 13.2159 65.6838 13.2289 65.7016C13.2419 65.7194 13.2508 65.74 13.2549 65.7619C13.2591 65.7837 13.2584 65.8063 13.253 65.8279L13.1298 66.3126C13.1242 66.3344 13.1139 66.3546 13.0997 66.3716C13.0854 66.3886 13.0676 66.4021 13.0476 66.4109C13.0276 66.4197 13.0058 66.4237 12.9841 66.4225C12.9624 66.4213 12.9412 66.415 12.9222 66.4041L11.9864 65.8973C11.8574 65.8219 11.911 65.6176 12.0593 65.6209Z" fill="#FFC107"/>
<path d="M9.74718 60.7358L10.6152 62.7855C10.6479 62.8627 10.6999 62.9293 10.7659 62.9785C10.832 63.0277 10.9095 63.0577 10.9905 63.0653L13.1052 63.2616C13.3444 63.2976 13.4399 63.6014 13.2664 63.7764L11.6735 65.1618C11.5445 65.2739 11.4858 65.4502 11.5213 65.6205L11.9843 67.8645C12.025 68.1109 11.7754 68.2992 11.5613 68.1823L9.71558 67.0633C9.64596 67.021 9.56671 66.9987 9.48599 66.9987C9.40528 66.9987 9.32602 67.021 9.25641 67.0633L7.41071 68.1816C7.19724 68.2978 6.94702 68.1102 6.98765 67.8638L7.45069 65.6198C7.48551 65.4495 7.42747 65.2733 7.29849 65.1611L5.70495 63.777C5.53211 63.6028 5.62756 63.2983 5.86617 63.2623L7.9808 63.066C8.06182 63.0584 8.13938 63.0284 8.20541 62.9792C8.27143 62.93 8.32348 62.8633 8.35613 62.7862L9.22416 60.7365C9.33186 60.5121 9.64012 60.5121 9.74718 60.7358V60.7358Z" fill="#FDD835"/>
<path d="M9.68423 62.9083L9.53719 61.398C9.53139 61.3139 9.51462 61.1697 9.64489 61.1697C9.74808 61.1697 9.80418 61.392 9.80418 61.392L10.2453 62.6045C10.4117 63.0659 10.3433 63.2241 10.1827 63.3176C9.9983 63.4244 9.72615 63.3409 9.68423 62.9083V62.9083Z" fill="#FFFF8D"/>
<path d="M11.5026 65.0278L12.7679 64.0056C12.8304 63.9515 12.9433 63.8654 12.853 63.7672C12.7814 63.6898 12.588 63.8013 12.588 63.8013L11.4807 64.2493C11.1505 64.3675 10.9312 64.5424 10.9119 64.7627C10.8867 65.0565 11.1415 65.2829 11.5026 65.0278Z" fill="#F4B400"/>
</g>
<defs>
<filter id="filter0_d_920_5451" x="29.2378" y="68.1895" width="60.3301" height="12.957" filterUnits="userSpaceOnUse" color-interpolation-filters="sRGB">
<feFlood flood-opacity="0" result="BackgroundImageFix"/>
<feColorMatrix in="SourceAlpha" type="matrix" values="0 0 0 0 0 0 0 0 0 0 0 0 0 0 0 0 0 0 127 0" result="hardAlpha"/>
<feOffset dy="1"/>
<feGaussianBlur stdDeviation="0.5"/>
<feComposite in2="hardAlpha" operator="out"/>
<feColorMatrix type="matrix" values="0 0 0 0 0 0 0 0 0 0 0 0 0 0 0 0 0 0 0.25 0"/>
<feBlend mode="normal" in2="BackgroundImageFix" result="effect1_dropShadow_920_5451"/>
<feBlend mode="normal" in="SourceGraphic" in2="effect1_dropShadow_920_5451" result="shape"/>
</filter>
<linearGradient id="paint0_linear_920_5451" x1="59.6039" y1="51.7068" x2="59.6039" y2="93.2168" gradientUnits="userSpaceOnUse">
<stop stop-color="#11998E"/>
<stop offset="1" stop-color="#38EF7D"/>
</linearGradient>
<clipPath id="clip0_920_5451">
<rect width="58.9623" height="61.0442" fill="white" transform="translate(30.1228 4.54626)"/>
</clipPath>
<clipPath id="clip1_920_5451">
<rect width="18.8679" height="19.5341" fill="white" transform="translate(95.1321 28.6265)"/>
</clipPath>
<clipPath id="clip2_920_5451">
<rect width="8.25472" height="8.54619" fill="white" transform="translate(5.3584 60.2531)"/>
</clipPath>
</defs>
</svg>
